<?xml version="1.0" standalone="no"?><!DOCTYPE svg PUBLIC "-//W3C//DTD SVG 1.1//EN" "http://www.w3.org/Graphics/SVG/1.1/DTD/svg11.dtd"><svg t="1582645173008" class="icon" viewBox="0 0 1024 1024" version="1.1" xmlns="http://www.w3.org/2000/svg" p-id="1851" xmlns:xlink="http://www.w3.org/1999/xlink" width="200" height="200"><defs><style type="text/css"></style></defs><path d="M512 928C282.25 928 96 741.75 96 512S282.25 96 512 96s416 186.25 416 416-186.25 416-416 416z m-32-736c-17.673 0-32 14.327-32 32v416h96c17.673 0 32-14.327 32-32V192h-96z m32 640c35.346 0 64-28.654 64-64 0-35.346-28.654-64-64-64-35.346 0-64 28.654-64 64 0 35.346 28.654 64 64 64z" p-id="1852" fill="#ff9900"></path></svg>