<?xml version="1.0" standalone="no"?><!DOCTYPE svg PUBLIC "-//W3C//DTD SVG 1.1//EN" "http://www.w3.org/Graphics/SVG/1.1/DTD/svg11.dtd"><svg fill="#595959" t="1578193219551" class="icon" viewBox="0 0 1024 1024" version="1.1" xmlns="http://www.w3.org/2000/svg" p-id="3355" xmlns:xlink="http://www.w3.org/1999/xlink" width="200" height="200"><defs><style type="text/css"></style></defs><path d="M942.991 365.673L528.082 119.19c-5.121-2.825-10.766-4.289-16.414-4.185-5.541-0.104-11.186 1.257-16.415 4.185L80.758 365.835C64.969 374.722 59.221 395.111 68 410.998c8.888 15.996 28.961 21.749 44.749 12.861l388.566-231.695a20.096 20.096 0 0 1 20.807 0L911 423.698c15.784 8.888 35.964 3.134 44.744-12.861 8.784-15.888 3.032-36.276-12.753-45.164z m0 0" p-id="3356"></path><path d="M409.314 797.087c0 7.004-5.645 12.654-12.545 12.654H282.392c-6.901 0-12.545-5.649-12.545-12.654V681.665c0-7.004 5.645-12.648 12.545-12.648h114.481c6.901 0 12.545 5.644 12.545 12.648l-0.104 115.422z m0-184.53c0 7.004-5.645 12.653-12.545 12.653H282.392c-6.901 0-12.545-5.648-12.545-12.653V497.135c0-7.004 5.645-12.649 12.545-12.649h114.481c6.901 0 12.545 5.645 12.545 12.649l-0.104 115.422z m181.706 184.53c0 7.004-5.644 12.654-12.545 12.654h-114.48c-6.902 0-12.545-5.649-12.545-12.654V681.665c0-7.004 5.644-12.648 12.545-12.648h114.479c6.902 0 12.545 5.644 12.545 12.648v115.422z m0-184.53c0 7.004-5.644 12.653-12.545 12.653h-114.48c-6.902 0-12.545-5.648-12.545-12.653V497.135c0-7.004 5.644-12.649 12.545-12.649h114.479c6.902 0 12.545 5.645 12.545 12.649v115.422z m207.635-26.136c-1.465-3.451-2.297-7.212-2.297-11.186 0-15.892 12.86-28.752 28.748-28.752 15.893 0 28.753 12.86 28.753 28.752 0 15.888-12.86 28.749-28.753 28.749-11.915 0-22.059-7.212-26.451-17.563" p-id="3357"></path><path d="M853.859 575.443V468.801c0-17.983-9.41-34.501-24.78-43.492L536.866 253.432a49.04 49.04 0 0 0-25.095-6.902 49.029 49.029 0 0 0-25.09 6.902L194.255 425.309c-15.267 8.991-24.781 25.509-24.781 43.492v391.017c0 27.811 22.375 50.393 49.979 50.393h344.174c0.316 0 0.631 0 0.942-0.104V852.71H226.873V472.878l284.795-167.486 284.691 167.383v101.939" p-id="3358"></path><path d="M537.596 892.647a28.515 28.515 0 0 1-2.297-11.189c0-15.887 12.856-28.748 28.749-28.748 15.892 0 28.752 12.86 28.752 28.748 0 15.893-12.86 28.753-28.752 28.753-11.813 0-22.06-7.212-26.452-17.564M942.415 655.53c-0.631-2.72-1.361-5.126-2.198-7.215-3.239-6.902-7.734-13.488-13.487-19.866-5.856-6.271-11.185-10.766-15.996-13.275-2.302-1.153-4.915-2.198-8.049-3.139a37.12 37.12 0 0 0-9.617-1.568c-3.347-0.104-6.694 0.316-10.145 1.361-3.45 1.045-6.793 2.824-9.932 5.333-2.509 2.089-5.645 4.915-9.405 8.469a1166.081 1166.081 0 0 1-9.726 9.094l64.091 64.403c1.567-1.361 3.342-3.032 5.121-4.811 1.568-1.567 3.452-3.45 5.645-5.541 2.193-2.09 4.599-4.495 7.423-7.211 2.509-2.721 4.289-5.649 5.437-8.573 1.148-3.036 1.672-5.96 1.672-8.991 0-2.825-0.311-5.753-0.834-8.47zM701.428 787.469c-7.531 7.528-13.801 14.01-18.82 19.131-5.019 5.127-8.261 8.469-9.618 9.83-3.243 3.243-5.648 6.166-7.423 8.784a57.597 57.597 0 0 0-4.605 8.779c-1.149 2.091-2.612 5.856-4.495 11.397a388.963 388.963 0 0 0-5.644 18.086c-1.987 6.589-3.762 12.86-5.437 18.924-1.672 6.063-2.821 10.771-3.239 13.905-0.941 5.96-0.315 10.248 1.671 12.758 2.091 2.509 6.167 3.45 12.338 2.716 2.929-0.419 7.424-1.463 13.591-3.134 6.062-1.568 12.442-3.451 19.238-5.645 6.793-2.198 13.172-4.393 19.339-6.694 6.171-2.297 10.873-4.284 14.117-5.856 3.239-1.356 6.27-3.238 9.302-5.54 2.928-2.298 5.541-4.496 7.843-6.586 0.942-0.73 3.766-3.451 8.573-8.258 4.811-4.81 10.873-10.977 18.194-18.401a2722.71 2722.71 0 0 1 24.672-24.676l27.393-27.915 73.709-74.123-64.092-64.719-126.607 127.237z m0 0" p-id="3359"></path></svg>