<?xml version="1.0" standalone="no"?><!DOCTYPE svg PUBLIC "-//W3C//DTD SVG 1.1//EN" "http://www.w3.org/Graphics/SVG/1.1/DTD/svg11.dtd"><svg t="1579590302433" class="icon" viewBox="0 0 1026 1024" version="1.1" xmlns="http://www.w3.org/2000/svg" p-id="2141" xmlns:xlink="http://www.w3.org/1999/xlink" width="200.390625" height="200"><defs><style type="text/css"></style></defs><path d="M801.792 380.928H210.944c-20.48 0-36.864-16.384-36.864-36.864s16.384-36.864 36.864-36.864h590.848c20.48 0 36.864 16.384 36.864 36.864s-16.384 36.864-36.864 36.864M911.36 641.024c-20.48 0-36.864 16.384-36.864 36.864V880.64c0 11.264-9.216 20.48-20.48 20.48H159.744c-11.264 0-20.48-9.216-20.48-20.48V681.984c0-20.48-16.384-36.864-36.864-36.864-20.48 0-36.864 16.384-36.864 36.864V880.64c0 52.224 41.984 95.232 94.208 95.232H855.04c52.224 0 94.208-43.008 94.208-95.232V677.888c-1.024-20.48-17.408-36.864-37.888-36.864M883.712 522.24c-16.384 9.216-37.888 14.336-61.44 14.336-45.056 0-86.016-22.528-109.568-61.44-2.048-4.096-4.096-10.24-10.24-15.36-6.144-7.168-17.408-15.36-35.84-15.36-14.336 0-27.648 6.144-35.84 15.36-5.12 5.12-8.192 11.264-9.216 15.36-23.552 38.912-64.512 61.44-108.544 61.44-45.056 0-84.992-23.552-109.568-62.464-2.048-3.072-4.096-9.216-9.216-14.336-17.408-20.48-56.32-19.456-71.68-2.048-5.12 6.144-8.192 12.288-10.24 16.384-23.552 38.912-64.512 61.44-109.568 61.44-23.552 0-44.032-4.096-60.416-13.312-41.984-22.528-68.608-66.56-68.608-114.688 0-14.336 2.048-28.672 7.168-43.008 0-1.024 1.024-2.048 1.024-3.072l91.136-218.112c2.048-5.12 7.168-22.528 35.84-22.528h607.232c11.264 1.024 31.744 3.072 38.912 23.552l86.016 215.04c0 2.048 1.024 3.072 1.024 4.096 5.12 14.336 7.168 28.672 7.168 41.984 2.048 50.176-23.552 93.184-65.536 116.736m131.072-177.152v-2.048c0-2.048-1.024-4.096-2.048-6.144l-87.04-216.064c-15.36-45.056-58.368-72.704-108.544-72.704H209.92c-51.2 0-91.136 27.648-105.472 70.656L11.264 339.968c0 1.024-1.024 3.072-1.024 5.12C3.072 365.568 0 387.072 0 408.576 0 484.352 40.96 552.96 107.52 588.8c27.648 14.336 59.392 22.528 95.232 22.528 60.416 0 116.736-26.624 154.624-72.704 37.888 45.056 94.208 71.68 154.624 72.704 60.416 0 115.712-27.648 153.6-72.704 37.888 46.08 94.208 72.704 155.648 72.704 36.864 0 69.632-8.192 97.28-23.552C984.064 551.936 1024 483.328 1024 408.576c1.024-22.528-2.048-44.032-9.216-63.488" fill="#595959" p-id="2142"></path></svg>