<?xml version="1.0" standalone="no"?><!DOCTYPE svg PUBLIC "-//W3C//DTD SVG 1.1//EN" "http://www.w3.org/Graphics/SVG/1.1/DTD/svg11.dtd"><svg fill="#595959" t="1578193166215" class="icon" viewBox="0 0 1024 1024" version="1.1" xmlns="http://www.w3.org/2000/svg" p-id="2553" xmlns:xlink="http://www.w3.org/1999/xlink" width="200" height="200"><defs><style type="text/css"></style></defs><path d="M491.235556 515.882667c-4.964848 0-8.274747-1.654949-11.584647-3.309899l-385.603232-220.108283c-11.584646-6.619798-16.549495-21.515636-9.929697-33.100283s21.514343-16.549495 33.09899-9.929697l385.603232 221.763232c11.584646 6.619798 16.549495 21.515636 9.929697 33.100283-3.309899 8.274747-11.584646 11.584646-21.514343 11.584647z" p-id="2554"></path><path d="M492.890505 515.882667c-8.274747 0-16.549495-4.964848-21.514343-13.239596-6.619798-11.584646-1.654949-26.479192 9.929697-33.09899l398.842828-223.419475c11.583354-6.618505 26.479192-1.653657 33.09899 9.93099 6.621091 11.584646 1.656242 26.477899-9.929697 33.09899l-398.842828 223.418182c-3.309899 3.309899-8.274747 3.309899-11.584647 3.309899z" p-id="2555"></path><path d="M890.078384 292.464485c-3.311192 0-8.274747-1.654949-11.583354-3.311192L482.960808 90.560646c-11.584646-6.619798-16.549495-21.515636-11.584646-33.100282 6.619798-11.584646 21.514343-16.549495 33.09899-11.584647L900.008081 244.470949c11.585939 6.619798 16.550788 21.514343 11.585939 33.09899-3.311192 9.928404-11.585939 14.894545-21.515636 14.894546z" p-id="2556"></path><path d="M112.252121 290.809535c-8.274747 0-18.204444-4.964848-21.514343-13.239596-6.619798-11.584646-1.654949-26.477899 11.584646-33.09899l380.638384-196.938989c11.584646-6.619798 26.479192-1.654949 33.09899 11.584646s1.654949 26.479192-11.584646 33.100283l-380.638384 195.282747c-3.309899 1.654949-6.619798 3.309899-11.584647 3.309899zM494.545455 977.975596c-4.964848 0-8.274747-1.654949-13.239596-3.311192L99.012525 741.317818c-11.584646-6.619798-14.894545-23.169293-8.274747-34.753939s23.169293-14.895838 34.753939-8.274748l382.293334 233.346586c11.584646 6.619798 14.894545 23.170586 8.274747 34.755232-4.964848 8.274747-13.239596 11.584646-21.514343 11.584647z m417.904484-251.769535c-2.319515 4.481293-5.337212 6.710303-9.12808 10.432646L517.505293 974.657939c-11.291152 7.420121-27.527758 2.806949-34.715152-8.494545-7.187394-11.301495-2.390626-27.766949 8.900526-35.185778L877.511111 692.958384c11.287273-7.418828 27.523879-2.804364 34.713859 8.495838 5.024323 8.283798 4.094707 17.278707 0.224969 24.751839z" p-id="2557"></path><path d="M501.165253 979.268525c-13.239596 0-24.824242-11.584646-24.824243-24.824242v-458.42101c0-13.239596 11.584646-24.824242 24.824243-24.824243 13.239596 0 24.824242 11.584646 24.824242 24.824243v458.422303c0 13.238303-11.584646 24.822949-24.824242 24.822949zM105.632323 740.955798c-13.239596 0-24.824242-11.584646-24.824242-24.824242v-431.941819c0-13.239596 11.584646-24.824242 24.824242-24.824242 13.239596 0 24.824242 11.584646 24.824243 24.824242v431.941819c0 13.239596-11.584646 24.824242-24.824243 24.824242z m785.670465-3.44695c-13.239596 0-24.825535-11.584646-24.825535-24.824242v-431.941818c0-13.239596 11.585939-24.824242 24.825535-24.824243 13.238303 0 24.822949 11.584646 24.822949 24.824243v431.941818c0 13.239596-11.584646 24.824242-24.822949 24.824242zM406.833131 611.869737c-4.964848 0-8.274747-1.654949-13.239596-3.311192l-185.354343-107.571717c-11.584646-6.619798-16.549495-21.514343-8.274748-34.753939 6.619798-11.584646 21.514343-16.549495 34.75394-8.273455l185.354343 107.571718c11.584646 6.619798 16.549495 21.514343 8.274748 34.753939-4.964848 8.274747-13.239596 11.584646-21.514344 11.584646z" p-id="2558"></path></svg>