<?xml version="1.0" standalone="no"?><!DOCTYPE svg PUBLIC "-//W3C//DTD SVG 1.1//EN" "http://www.w3.org/Graphics/SVG/1.1/DTD/svg11.dtd"><svg t="1579425104730" class="icon" viewBox="0 0 1024 1024" version="1.1" xmlns="http://www.w3.org/2000/svg" p-id="2135" xmlns:xlink="http://www.w3.org/1999/xlink" width="200" height="200"><defs><style type="text/css"></style></defs><path d="M27.307 624.64h399.36c17.066 0 27.306-13.653 27.306-27.307 0-17.066-13.653-27.306-27.306-27.306H27.307C13.653 566.613 0 580.267 0 593.92c0 17.067 13.653 30.72 27.307 30.72z m0-170.667h399.36c17.066 0 27.306-13.653 27.306-27.306 0-17.067-13.653-27.307-27.306-27.307H27.307C13.653 395.947 0 409.6 0 423.253c0 17.067 13.653 30.72 27.307 30.72z m58.026-170.666h399.36C501.76 283.307 512 269.653 512 256c0-17.067-13.653-27.307-27.307-27.307H85.333c-17.066-3.413-27.306 10.24-27.306 23.894 0 17.066 10.24 30.72 27.306 30.72z m935.254 269.653l-225.28-317.44c-6.827-6.827-13.654-6.827-20.48-6.827H655.36V112.64c0-17.067-13.653-27.307-27.307-27.307H170.667c-17.067 0-27.307 13.654-27.307 27.307s10.24 27.307 27.307 27.307h426.666V593.92c0 17.067 13.654 27.307 27.307 27.307h341.333V819.2h-61.44c-13.653-64.853-71.68-112.64-139.946-112.64S638.293 754.347 624.64 819.2H392.533c-13.653-64.853-71.68-112.64-139.946-112.64S126.293 754.347 112.64 819.2H27.307C10.24 819.2 0 832.853 0 846.507c0 17.066 13.653 27.306 27.307 27.306h88.746c13.654 64.854 71.68 112.64 139.947 112.64s126.293-47.786 139.947-112.64h232.106c13.654 64.854 71.68 112.64 139.947 112.64s126.293-47.786 139.947-112.64h88.746c17.067 0 27.307-13.653 27.307-27.306V563.2c0-3.413-3.413-6.827-3.413-10.24zM256 935.253c-47.787 0-85.333-37.546-85.333-85.333s37.546-85.333 85.333-85.333 85.333 37.546 85.333 85.333-37.546 85.333-85.333 85.333z m512 0c-47.787 0-85.333-37.546-85.333-85.333s37.546-85.333 85.333-85.333 85.333 37.546 85.333 85.333-37.546 85.333-85.333 85.333z m-6.827-651.946L962.56 566.613h-307.2V283.307h105.813z" fill="#595959" p-id="2136"></path></svg>