<?xml version="1.0" standalone="no"?><!DOCTYPE svg PUBLIC "-//W3C//DTD SVG 1.1//EN" "http://www.w3.org/Graphics/SVG/1.1/DTD/svg11.dtd"><svg fill="#595959" t="1578193578863" class="icon" viewBox="0 0 1024 1024" version="1.1" xmlns="http://www.w3.org/2000/svg" p-id="4127" xmlns:xlink="http://www.w3.org/1999/xlink" width="200" height="200"><defs><style type="text/css"></style></defs><path d="" p-id="4128"></path><path d="M744.093 1003.965l-3.204-0.44-2.021-0.508-1.801-0.612-1.843-0.777-1.994-1.093-1.32-0.9-210.364-115.165c-4.978-2.73-8.759-7.019-10.821-12.176-2.076 5.15-5.843 9.44-10.808 12.176l-215.027 117.929-2.791 0.749-3.712 0.695-2.255 0.151-2.159-0.103-3.74-0.564-2.351-0.619-3.286-1.492-212.937-116.747c-5.363-2.936-9.322-7.693-11.276-13.379h-0.963l-0.357-4.689-0.069-3.19v-283.063c0-10.004 6.202-19.147 15.428-22.764l224.446-106.688v-276.361c0-9.989 6.202-19.134 15.442-22.757l229.286-109.005v3.142c3.396 0.137 6.669 0.99 9.762 2.537l204.37 103.656c8.786 3.417 14.727 12.293 14.727 22.426v274.593l0.427 2.578c3.658 0.041 7.178 0.908 10.477 2.571l204.37 103.643c8.786 3.417 14.727 12.293 14.727 22.426v290.942h-1.403c-1.939 5.679-5.899 10.429-11.248 13.372l-214.985 117.917-2.97 0.77-3.864 0.743-1.747 0.11-2.144-0.035zM771.772 940.624l164.027-89.892v-227.491l-164.027 89.913v227.47zM302.118 940.624l164.013-89.892v-227.491l-164.013 89.913v227.47zM721.419 938.563v-227.484l-68.435-37.517v50.381l-56.665-26.737v-54.692l-38.927-21.334v227.471l164.026 89.913zM251.518 938.563v-227.484l-68.422-37.517v50.381l-56.665-26.737v-54.692l-38.927-21.334v227.471l164.013 89.913zM745.647 668.907l160.424-87.919-62.853-31.887-162.006 84.475 64.434 35.332zM275.759 668.907l160.424-87.919-62.853-31.887-162.006 84.475 64.434 35.332zM151.374 600.711l159.599-83.223-28.628-14.527-165.649 78.734 34.678 19.017zM621.262 600.711l159.599-83.223-28.628-14.527-165.649 78.734 34.678 19.017zM491.652 538.409v-227.484l-68.422-37.517v50.381l-56.665-26.744v-54.692l-38.941-21.334v227.478l164.027 89.913zM542.885 534.119l164.013-89.9v-227.484l-164.013 89.913v227.471zM515.605 263.074l160.616-90.016-62.949-31.935-162.212 86.565 64.545 35.386zM402.729 200.572l159.736-85.279-38.885-19.333-165.69 80.735 44.839 23.877z" p-id="4129"></path></svg>