<?xml version="1.0" standalone="no"?><!DOCTYPE svg PUBLIC "-//W3C//DTD SVG 1.1//EN" "http://www.w3.org/Graphics/SVG/1.1/DTD/svg11.dtd"><svg t="1578651297680" class="icon" viewBox="0 0 1024 1024" version="1.1" xmlns="http://www.w3.org/2000/svg" p-id="3952" xmlns:xlink="http://www.w3.org/1999/xlink" width="200" height="200" fill="#ff9900"><defs><style type="text/css"></style></defs><path d="M318.579383 925.39674c-6.415805 0.10115-12.744909 0.209525-19.077626 0.390151-39.654442 0.574388-79.334171 1.231863-118.894687 2.817752-11.892359-3.94124-9.338319-16.704212-9.26607-26.90592 12.091046-30.872448 43.83772-39.379891 71.964666-50.513625 9.081832-1.510026 22.003754-4.920229 51.944175-10.382332 40.228829-5.205616 80.649122-7.268355 121.174176-7.860806 56.387554 3.236802 113.410908 6.925168 166.117322 28.621859 17.462838 9.070994 30.048797 15.591561 39.567742 33.159161 5.368179 2.637127 2.554039 18.875326 1.791801 23.510168-9.822395 7.752431-10.674945 8.388231-23.694405 8.691681-93.874494-3.486065-187.73815-0.939251-281.627094-1.528089z" p-id="3953"></path><path d="M18.069738 716.131687c-0.1734-5.180329-0.270938-10.295633-0.36125-15.400099 0.18785-47.493572 0.18785-47.493572-0.867001-134.558498 1.622014-4.147153 8.229281-3.489678 11.910422-3.782291 24.929881 5.480167 50.990475 9.91632 76.310505 13.709448 11.422733 10.19087 19.745939 23.506555 32.386087 32.093473 8.695294 1.900176 16.238199 2.850265 25.128568 3.211515 8.872306-3.211515 15.107486-6.990193 20.215565 3.301828 3.095915 1.723164 4.811854 3.413815 7.07328 6.061779 4.717928 2.467339 9.526169 4.992479 14.356086 7.550131 13.413222 1.690651 23.97618 3.121202 37.490552 2.741889 0.653863-0.755013 0.653863-0.755013 9.81517-4.139928 2.92974-1.813476 5.848642-3.587215 8.893981-5.407916 3.95569-4.988866 8.391844-6.802342 13.116997-1.314951 10.656883 5.671629 15.764962 7.37673 16.418825 8.124518 5.953404 1.123488 5.953404 1.123488 23.336767 1.777351 17.936076-1.986876 33.054399-6.39413 45.434446-20.56959 12.351147-7.37673 27.852395-7.459818 41.821943-9.562294 10.490708-5.169491 14.366923-6.101517 24.933493-11.502208 0.097538-0.379313 0.195075-0.755013 0.292613-1.044014 30.11021-16.80175 57.789205-19.341339 91.782855-16.80175 13.503535 2.362577 27.02152 4.735991 40.514217 7.084118 26.73252 9.826007 55.802328 13.882848 81.88821 25.388669 24.095393 6.802342 48.176335 13.61191 72.33314 20.41064 1.221026 0.5491 2.456502 1.224638 3.677528 1.896564 36.081676 9.721245 73.965992 17.184675 106.930078 35.214675 0.466013 1.051238 0.466013 1.051238 11.043421 8.500219 10.674945 12.849672 15.288111 21.898991 10.75442 39.094504-22.838242 36.273139-70.740027 13.142285-102.157962 4.996091-12.762972-5.173104-25.612644-9.522557-39.018641-12.466747-21.259578-8.500219-43.80882-14.338023-64.779398-23.304254a1073.664686 1073.664686 0 0 0-18.416538-2.362577c-16.538037 3.301827-21.252353 4.905779-23.156142 21.140365 0.671925 3.229577 1.430551 6.426642 2.181951 9.634545 2.745502 2.456502 5.559642 4.905779 8.424357 7.36228 19.91934 8.146193 40.69123 12.654597 61.470345 18.528526 2.82859 3.197065 23.228392 7.44898 27.678995 8.026981 16.137049 6.621717 34.719763 11.729796 51.929725 15.118324 30.608735 11.234883 63.449996 22.657617 96.146758 24.731193 16.71505-0.852551 22.838242-2.749115 34.170663-14.822098 6.24963-11.895971 16.650025-22.104904 24.088168-33.44455 1.318563-0.552713 2.752727-3.388527 6.802342-7.452593 15.656586-21.826741 15.656586-21.826741 27.306908-36.052776 23.799167-20.226402 49.465999-9.374444 65.061172 13.955098 1.510026 3.587215 3.012827 7.181655 4.537304 10.776095 0.111988 4.226628 0.169788 8.492994 0.368475 12.831609-3.034502 7.557356-5.292316 14.934086-11.065096 20.681578-6.217117 9.555069-16.870387 18.423763-21.14759 28.531546-4.226628 5.653567-9.721245 16.137049-15.642137 19.825414-23.741367 32.761786-41.764143 69.407013-79.251083 86.486926-32.407761 9.060157-67.253962 7.943893-98.58881-4.05684-18.062513-4.237466-35.518126-12.174134-53.743201-15.566274-7.676568-3.500515-14.272998-5.194779-22.480604-6.141255-31.461286-12.658209-65.935398-19.279927-98.032485-30.034347-18.882551-4.710703-37.309927-11.708121-56.380328-16.155111-21.357116-9.623707-50.903775-11.054258-73.763692-14.533099-3.222352-3.211515-44.282057-0.964538-50.892937-0.964538-10.212545 1.430551-82.354223 6.834855-107.573104 9.55507-15.587949 0.859776-29.759797 2.358964-44.943145 5.483779-16.819812 1.520864-33.643237 3.10314-50.351062 4.703478-36.930615 7.839131-74.97388 8.706131-111.987582 16.057574-29.857334 3.038115-59.133056 9.826007-88.882015 13.608298-4.147153-1.304113-4.609553-2.936965-5.942567-6.997418 0.4624-39.932604 0.935638-79.897721 1.398038-119.758075z" p-id="3954"></path><path d="M976.53894 217.797785v16.332124c0.393763 22.104904 0.762238 44.282057 1.148776 66.484499 1.282438 17.950526 8.211219 35.604826-12.578734 39.860354-52.973739 2.821365-105.857165 9.533394-158.906767 13.976773-21.837578 3.583603-43.653482 4.905779-65.772835 6.408579-14.244098 2.745502-33.784125 5.299541-34.452438 6.054555-14.634248 4.425316-21.259578 21.895379-26.909532 34.362125a775.019093 775.019093 0 0 0-10.024695 14.272998c-9.623707 7.268355-19.91934 16.035899-28.137783 24.828731-10.295633 6.50973-10.295633 6.50973-17.285825 12.275284a3623.509941 3623.509941 0 0 0-34.474113 19.745939 1865.919029 1865.919029 0 0 0-58.54783 28.318408c-25.392281 10.85557-50.7087 25.211656-76.668144 34.474113-16.534425 3.504128-28.242546 0.755013-38.733253-12.835222-9.822395-26.64582 4.349453-43.913582 25.128568-58.851281 15.396486-9.818782 29.268496-21.711141 44.650533-31.255372 9.081832-8.774769 20.602103-12.849672 29.561109-21.245128 12.083821-6.975743 24.46748-13.315685 35.814351-21.613604 0.830876-1.622014 0.830876-1.622014 2.059127-2.088026 0.379313-2.554039 0.755013-5.100854 1.22825-7.658506-3.684753-10.664108-7.535681-13.116997-14.442785-20.764665-12.369209-8.319594-56.575404-42.114556-73.091766-25.583744-5.566867 17.26415-16.057574 33.321724-22.585367 50.5931-3.39214 6.166542-6.123192 13.608297-10.95672 23.159754-3.760615 10.945883-10.945883 20.38174-14.908799 31.342073-9.529782 12.744909-13.796148 30.32696-21.812291 44.19897-5.570479 13.214535-12.838834 24.637268-17.011275 38.437028-8.673619 13.023072-12.820772 29.170959-21.140365 42.587794-7.842743 19.756777-20.41064 30.78936-40.99468 36.540464-18.420151 0.559938-29.080646-4.519241-39.004191-19.720652-4.808241-2.088027-5.845029-2.846652-10.562958-0.10115-8.883144 11.527496-19.670077 19.623114-33.813025 22.953842-14.547548-0.205913-21.245128-0.671925-31.461285-11.422734-3.587215-7.00103-6.607267-17.571213-16.140662-16.812587-6.701192 4.526466-6.701192 4.526466-11.242108 6.791505-16.335737 5.006929-28.618246 5.006929-40.033755-10.08972-5.111691-11.885134-2.192789-23.069442 0.559938-35.214676 11.892359-27.216595 26.060594-53.475877 38.234728-80.486558 6.047329-9.90187 9.363607-21.241516 14.930474-31.342073 0.278163-0.10115 0.570775-0.195075 0.942863-0.292613 7.564581-19.922952 21.339053-38.538178 28.047471-58.728456 0.852551-1.224638 1.788189-2.452889 2.741889-3.605277-2.647964-10.096945-4.714316-12.842447-14.26216-7.831906-6.607267 7.831906-14.168235 18.044451-23.23923 23.134467-1.224638 1.618401-2.358964 3.21874-3.489677 4.819078-20.775503 20.204727-40.991068 44.860058-66.578424 59.208919-17.661525 5.570479-32.866549 4.808241-43.252494-11.892359-1.885726-5.946179-1.885726-5.946179-3.211515-14.168235 1.130713-16.238199 3.980978-32.588386 18.886164-41.926706 1.423326-2.088027 2.918902-4.07129 4.443378-6.043717 24.26518-18.416538 43.714895-45.622296 69.034925-62.424046 7.00103-12.571509 28.043858-19.175164 35.023214-32.396923 3.688365-2.452889 6.535017-5.010541 9.555069-8.222056 12.372822-8.695294 23.405405-19.550864 36.150314-27.657321 8.792831-8.496606 19.471389-15.595174 29.470797-22.574529 7.365893-3.023665 13.413222-9.081832 20.876652-10.577407 5.772779-4.819079 11.419121-5.852254 17.759063-9.533395 13.041135-4.345841 26.154519-8.594144 39.289579-12.842447 25.395894-1.622014 49.563536 1.589501 74.883568 2.452889 23.99063 2.626289 48.060735 4.049615 72.152515 5.379017 2.355352 0.559938 4.717928 1.130713 7.07328 1.697876 22.195216 1.033176 44.477133 2.084414 66.773499 3.113977 13.778085-1.983264 27.292457-6.137642 41.189755-8.496606 19.810965-5.942567 40.131292-9.349157 60.050632-14.439173 2.257814-1.152388 54.49099-13.608297 55.15569-14.370535 27.953545-5.379016 28.632696-6.137642 36.562139-7.268356 32.393311-8.594144 65.238185-16.798137 98.01081-23.893092a65483.799337 65483.799337 0 0 1 67.799449-17.285825c38.447866-11.986284 38.447866-11.986284 42.504706-12.650985 6.730092 0 7.853581 1.426939 11.429959 6.701193 0.296225 6.805955 0.296225 6.805955-2.532365 44.01112l-0.863388 71.690115z" p-id="3955"></path></svg>