<?xml version="1.0" standalone="no"?><!DOCTYPE svg PUBLIC "-//W3C//DTD SVG 1.1//EN" "http://www.w3.org/Graphics/SVG/1.1/DTD/svg11.dtd"><svg t="1578911115219" fill="#ff9900" class="icon" viewBox="0 0 1024 1024" version="1.1" xmlns="http://www.w3.org/2000/svg" p-id="6777" xmlns:xlink="http://www.w3.org/1999/xlink" width="200" height="200"><defs><style type="text/css"></style></defs><path d="M769.596 555.108H635c-29.856 30.644-71.552 49.704-117.712 49.704-46.164 0-87.856-19.06-117.716-49.704H279c-33.78 0-61.168 27.396-61.168 61.168v286.712c0 33.78 27.384 61.168 61.168 61.168H769.6c33.776 0 61.164-27.388 61.164-61.168v-286.712c-0.004-33.772-27.388-61.168-61.168-61.168zM324.872 416.852c0-57.332 30.42-107.556 75.992-135.432a39.852 39.852 0 0 0-28.22-11.668H284.672c-19.52 20.032-46.768 32.484-76.94 32.484-30.172 0-57.42-12.452-76.944-32.484H51.98C29.9 269.752 12 287.652 12 309.732v187.404c0 22.076 17.9 39.98 39.98 39.98h320.664c2.308 0 4.56-0.24 6.756-0.612-33.396-29.092-54.528-71.888-54.528-119.652z" fill="#ff9900" p-id="6778"></path><path d="M203.884 182.716m-103.696 0a103.696 103.696 0 1 0 207.392 0 103.696 103.696 0 1 0-207.392 0Z" fill="#ff9900" p-id="6779"></path><path d="M512.4 416.852m-158.644 0a158.644 158.644 0 1 0 317.288 0 158.644 158.644 0 1 0-317.288 0Z" fill="#ff9900" p-id="6780"></path><path d="M695.296 414.464c0-57.332-30.42-107.556-76-135.432a39.872 39.872 0 0 1 28.232-11.668h87.972c19.512 20.028 46.752 32.488 76.932 32.488s57.424-12.456 76.948-32.488h78.804c22.08 0 39.98 17.9 39.98 39.984v187.4c0 22.076-17.904 39.98-39.98 39.98h-320.66c-2.312 0-4.568-0.24-6.756-0.612 33.392-29.096 54.528-71.896 54.528-119.652z" fill="#ff9900" p-id="6781"></path><path d="M816.288 180.328m-103.696 0a103.696 103.696 0 1 0 207.392 0 103.696 103.696 0 1 0-207.392 0Z" fill="#ff9900" p-id="6782"></path></svg>