<?xml version="1.0" standalone="no"?><!DOCTYPE svg PUBLIC "-//W3C//DTD SVG 1.1//EN" "http://www.w3.org/Graphics/SVG/1.1/DTD/svg11.dtd"><svg t="1578908750728" fill="#ff9900" class="icon" viewBox="0 0 1024 1024" version="1.1" xmlns="http://www.w3.org/2000/svg" p-id="6001" xmlns:xlink="http://www.w3.org/1999/xlink" width="200" height="200"><defs><style type="text/css"></style></defs><path d="M935.4 502l-15.3-15.3c-21.4-21.4-56.4-21.4-77.7 0L641.3 687.8c-1.7 1.7-3 3.7-3.8 6L598 805.6c-4.5 12.8 8 25 20.7 20.2l109.8-41.3c2.1-0.8 4.1-2 5.7-3.7l201.2-201.2c21.4-21.2 21.4-56.2 0-77.6z" p-id="6002"></path><path d="M764.5 821.2c-4.8 4.8-10.7 8.6-17.1 11l-155.6 58.4c-37.5 14.1-74.5-22.1-61.1-59.9l57.4-162.4c1.5-4.3 4-8.2 7.2-11.4l267.3-267.3c0.3-0.3 0.5-0.8 0.5-1.3V178.7c0-64.1-52.5-116.6-116.6-116.6H181.7c-64.1 0-116.6 52.5-116.6 116.6V843c0 64.1 52.5 116.6 116.6 116.6h564.9c64.1 0 116.6-52.5 116.6-116.6V727c0-1.7-2-2.5-3.2-1.3l-95.5 95.5zM257.3 247.6h407.9c23.4 0 45.8 14.7 51.3 37.5 7.9 32.5-16.9 61.9-48.2 61.9H260.4c-23.4 0-45.8-14.7-51.3-37.5-7.9-32.5 16.9-61.9 48.2-61.9z m192.5 346H254.2c-23.4 0-45.8-14.7-51.3-37.5-7.9-32.5 16.9-61.9 48.2-61.9h195.6c23.4 0 45.8 14.7 51.3 37.5 7.9 32.6-16.9 61.9-48.2 61.9z" p-id="6003"></path></svg>