<?xml version="1.0" standalone="no"?><!DOCTYPE svg PUBLIC "-//W3C//DTD SVG 1.1//EN" "http://www.w3.org/Graphics/SVG/1.1/DTD/svg11.dtd"><svg t="1577761951543" class="icon" viewBox="0 0 1183 1024" version="1.1" xmlns="http://www.w3.org/2000/svg" p-id="2707" xmlns:xlink="http://www.w3.org/1999/xlink" width="231.0546875" height="200" fill="#ff9900"><defs><style type="text/css"></style></defs><path d="M767.799564 1024H0.001616v-71.52644a82.235201 82.235201 0 0 0 51.11918 17.376479h664.347277L767.799564 1024zM311.36389 141.436464a141.436464 141.436464 0 1 0 141.436464-141.436464 141.436464 141.436464 0 0 0-46.674034 8.082084A141.436464 141.436464 0 0 0 311.36389 141.436464z m-77.385952 196.394633c-33.338595 73.951066-106.077348 262.667719-125.878453 310.554065h247.917917a345.307024 345.307024 0 0 1 18.38674-38.996054C397.640133 565.745856 470.580938 545.540647 453.204458 484.92502v-1.616417L518.063179 545.540647a51.523283 51.523283 0 0 0 16.972376 10.708761l178.614049 68.091555a51.321231 51.321231 0 1 0 36.571428-95.974744l-157.802683-60.615627a60.615627 60.615627 0 0 1-20.205209-12.52723L433.403353 323.283346a55.766377 55.766377 0 0 0-21.417522-11.921073l-5.859511-1.818469-6.667719-1.616416a323.283346 323.283346 0 0 0-109.108129-13.941595 70.718232 70.718232 0 0 0-34.550908 10.708761 79.608524 79.608524 0 0 0-21.821626 34.550908z" p-id="2708"></path><path d="M51.120796 914.083662h677.480663l64.858721 65.868982a67.687451 67.687451 0 0 0 21.417522 14.345699 66.67719 66.67719 0 0 0 24.448303 4.84925h276.609313a64.454617 64.454617 0 1 0 0-128.707183H866.198933l-168.915549-171.542225a50.715075 50.715075 0 0 0-44.45146-18.992897H51.120796A51.119179 51.119179 0 0 0 0.001616 731.428571v131.535912a51.119179 51.119179 0 0 0 51.11918 51.119179z" p-id="2709"></path><path d="M1087.445973 678.692976a147.700079 147.700079 0 1 0-147.700079 147.700078 147.700079 147.700079 0 0 0 147.700079-147.700078z" p-id="2710"></path></svg>