<?xml version="1.0" standalone="no"?><!DOCTYPE svg PUBLIC "-//W3C//DTD SVG 1.1//EN" "http://www.w3.org/Graphics/SVG/1.1/DTD/svg11.dtd"><svg fill="#ff9900" t="1578651492053" class="icon" viewBox="0 0 1028 1024" version="1.1" xmlns="http://www.w3.org/2000/svg" p-id="5347" xmlns:xlink="http://www.w3.org/1999/xlink" width="200.78125" height="200"><defs><style type="text/css"></style></defs><path d="M515.741778 315.556638l117.242388 77.953715v-311.81486h273.773447c23.697929 0 38.665043 15.590743 38.665042 38.665043v233.861145c0 23.697929 15.590743 38.665043 38.665043 38.665043s38.665043-15.590743 38.665043-38.665043V81.695493C1022.752741 43.030451 984.087698 3.741778 944.799026 3.741778H85.437272C46.148599 3.741778 6.859927 42.406821 6.859927 81.695493v857.490865c0 38.665043 38.665043 77.953715 77.953715 77.953715h273.149817c23.697929 0 38.665043-15.590743 38.665043-38.665043s-15.590743-38.665043-38.665043-38.665042H124.102314c-23.697929 0-38.665043-15.590743-38.665042-38.665043v-779.53715c0-23.697929 15.590743-38.665043 38.665042-38.665042h273.773447v311.81486c0-1.247259 117.242387-79.200974 117.866017-79.200975z" p-id="5348"></path><path d="M303.707674 688.487211c-1.870889-1.247259-4.989038-1.870889-8.730817-3.118149-8.730816-3.118149-14.343484-4.989038-17.461632-5.612667 9.978076-29.934227 16.838002-71.093788 20.579781-122.855055l28.063337 3.118148c-1.247259 15.590743-3.118149 30.557856-5.612667 45.52497h24.945189V525.096224h36.794153v80.448234H411.595615v28.063337c21.20341-32.428745 38.041413-67.975639 49.890378-107.887941l36.794153 8.730816c-1.870889 5.612667-5.612667 14.967113-11.848965 28.063337-3.118149 8.107186-5.612667 13.719854-7.483556 17.461632H623.62972c-1.247259 32.428745-2.494519 83.566382-4.365408 154.660171-1.870889 34.923264-3.118149 57.997564-3.118149 68.599269 1.247259 39.912302-18.708892 60.492083-58.621193 61.115713h-21.827041c-11.848965 1.247259-20.579781 1.247259-26.192448 1.247259 0-1.870889-0.62363-5.612667-1.247259-9.978075-3.118149-13.719854-5.612667-22.45067-7.483557-26.192449 16.838002 1.247259 31.805116 1.247259 45.52497 1.24726 22.45067 1.247259 33.676005-10.601705 33.676004-34.923264 3.741778-65.481121 6.236297-125.349574 7.483557-179.60536h-23.697929c-4.989038 121.607795-44.90134 205.797808-119.736906 252.570037-8.107186-9.978076-17.461632-19.332521-29.310597-29.310597 74.211937-45.52497 114.747868-120.360536 122.855055-223.88307H511.37637c-8.730816 72.964677-38.041413 131.585871-87.93179 175.239952-8.730816-10.601705-18.085262-19.956151-28.063338-28.063338 48.019488-36.794153 77.330085-86.060901 89.17905-147.800243h-23.697929c-10.601705 22.45067-23.0743 42.406821-36.794153 59.868453-10.601705-10.601705-19.332521-18.708892-26.192449-24.945189l7.483557-9.978075h-23.697929v67.352009l30.557856-7.483556c0 17.461632 0.62363 29.934227 1.247259 38.041413-11.848965 3.118149-22.45067 5.612667-32.428745 8.730816V873.081608h-36.794154v-117.242388c-18.708892 5.612667-38.665043 12.472594-59.868453 18.708892l-4.365408-42.406821c20.579781-4.989038 41.783191-9.978076 64.233861-16.214373v-76.082825h-29.310596c-1.247259 4.989038-3.118149 12.472594-5.612668 21.82704-1.870889 13.719854-3.741778 22.45067-5.612667 26.816078zM657.305725 691.605359v-33.676005h56.750304V525.096224h36.794154v132.83313h54.255785v33.676005h-54.255785v36.794154l13.096224-13.096224 11.848964 11.848964c15.590743 15.590743 27.439708 28.063337 34.923265 36.794154l-23.69793 26.192448c-4.989038-6.859927-13.096224-16.214373-24.945188-28.063337-4.989038-5.612667-8.730816-9.978076-11.848965-13.096224V873.081608h-36.794153v-124.102314c-10.601705 25.568819-27.439708 52.384896-49.890378 80.448233-3.118149-14.343484-6.859927-28.686967-11.848965-42.406821 21.20341-23.697929 41.159562-54.879415 58.621194-94.791717h-53.008526z m23.697929-52.384896c-10.601705-31.181486-18.708892-55.503045-24.945189-72.964677l26.192449-8.730816c5.612667 17.461632 14.343484 41.783191 24.945188 72.964677l-26.192448 8.730816z m99.157126 1.247259l-24.945189-9.978075c11.848965-26.192448 21.82704-50.514007 30.557856-72.964677l26.192448 9.978075c-8.107186 23.0743-18.708892 47.395859-31.805115 72.964677z m36.794153 147.800244l-4.365408-36.794154 109.758831-9.978075V525.096224h38.041413v212.034105l46.772229-4.365408 1.247259 36.794153-48.019488 3.741779v99.780755h-38.041413v-94.791718l-105.393423 9.978076z m59.868453-67.35201c-23.697929-20.579781-43.030451-36.170524-58.621194-46.772229l21.827041-26.192448c21.20341 15.590743 41.159562 30.557856 59.868453 45.524969l-23.0743 27.439708z m9.978076-87.93179c-21.20341-20.579781-40.535932-36.794153-56.750305-49.890378l23.697929-24.945189c3.118149 3.118149 7.483557 6.236297 14.343484 9.978076 18.708892 14.343484 33.052375 26.816078 43.65408 36.794153l-24.945188 28.063338z" p-id="5349"></path></svg>