<?xml version="1.0" standalone="no"?><!DOCTYPE svg PUBLIC "-//W3C//DTD SVG 1.1//EN" "http://www.w3.org/Graphics/SVG/1.1/DTD/svg11.dtd"><svg t="1577761974214" class="icon" viewBox="0 0 1024 1024" version="1.1" xmlns="http://www.w3.org/2000/svg" p-id="3718" xmlns:xlink="http://www.w3.org/1999/xlink" width="200" height="200"><defs><style type="text/css"></style></defs><path d="M518.29845 519.976672m-452.511118 0a452.511117 452.511117 0 1 0 905.022235 0 452.511117 452.511117 0 1 0-905.022235 0Z" fill="#F6CC79" p-id="3719"></path><path d="M518.29845 519.976672m-325.670268 0a325.670268 325.670268 0 1 0 651.340535 0 325.670268 325.670268 0 1 0-651.340535 0Z" fill="#F9A501" p-id="3720"></path><path d="M446.252577 375.664915m-30.852682 0a30.852682 30.852682 0 1 0 61.705364 0 30.852682 30.852682 0 1 0-61.705364 0Z" fill="#FFFFFF" p-id="3721"></path><path d="M603.943039 375.664915m-30.852682 0a30.852682 30.852682 0 1 0 61.705364 0 30.852682 30.852682 0 1 0-61.705364 0Z" fill="#FFFFFF" p-id="3722"></path><path d="M634.909307 540.823466h-96.044449v-78.84472h96.044449c11.358699 0 20.568455-9.209756 20.568455-20.568454 0-11.359722-9.209756-20.568455-20.568455-20.568455H401.684522c-11.358699 0-20.568455 9.209756-20.568455 20.568455 0 11.358699 9.209756 20.568455 20.568455 20.568454h96.04445v78.84472h-96.04445c-11.358699 0-20.568455 9.209756-20.568455 20.568454s9.209756 20.568455 20.568455 20.568455h96.04445v113.177665c0 11.359722 9.209756 20.568455 20.568454 20.568455 11.358699 0 20.568455-9.209756 20.568455-20.568455v-113.177665h96.04445c11.358699 0 20.568455-9.209756 20.568454-20.568455s-9.209756-20.568455-20.569478-20.568454z" fill="#FFFFFF" p-id="3723"></path></svg>