<?xml version="1.0" standalone="no"?><!DOCTYPE svg PUBLIC "-//W3C//DTD SVG 1.1//EN" "http://www.w3.org/Graphics/SVG/1.1/DTD/svg11.dtd"><svg t="1577762028757" class="icon" viewBox="0 0 1024 1024" version="1.1" xmlns="http://www.w3.org/2000/svg" p-id="5258" xmlns:xlink="http://www.w3.org/1999/xlink" width="200" height="200"><defs><style type="text/css"></style></defs><path d="M976 873.566 766.876 873.566 766.876 812.522 816.664 812.522C825.5 812.522 832.664 805.358 832.664 796.522L832.664 795.652C832.664 786.816 825.5 779.652 816.664 779.652L684.13 779.652C675.294 779.652 668.13 786.816 668.13 795.652L668.13 796.522C668.13 805.358 675.294 812.522 684.13 812.522L733.938 812.522 733.938 873.566 268.562 873.566 268.562 812.522 318.364 812.522C327.202 812.522 334.364 805.358 334.364 796.522L334.364 795.652C334.364 786.816 327.202 779.652 318.364 779.652L185.832 779.652C176.996 779.652 169.832 786.816 169.832 795.652L169.832 796.522C169.832 805.358 176.996 812.522 185.832 812.522L235.624 812.522 235.624 873.566 50 873.566C27.908 873.566 10 855.656 10 833.566L10 120C10 97.908 27.908 80 50 80L976 80C998.092 80 1016 97.908 1016 120L1016 833.566C1016 855.656 998.092 873.566 976 873.566ZM616.438 645.972 677.562 645.972 677.562 589.598 616.438 589.598 616.438 645.972ZM616.438 363.966 766.876 363.966 766.876 307.59 616.438 307.59 616.438 363.966ZM569.412 175.218C569.412 171.904 566.724 169.218 563.412 169.218L91.214 169.218C87.902 169.218 85.214 171.904 85.214 175.218L85.214 642.174C85.214 645.488 87.902 648.174 91.214 648.174L563.412 648.174C566.724 648.174 569.412 645.488 569.412 642.174L569.412 175.218ZM809.188 171.09 616.438 171.09 616.438 227.466 809.188 227.466 809.188 171.09ZM950.188 171.09 865.562 171.09 865.562 227.466 950.188 227.466 950.188 171.09ZM950.188 307.59 799.75 307.59 799.75 363.966 950.188 363.966 950.188 307.59ZM950.188 448.722 616.438 448.722 616.438 505.098 950.188 505.098 950.188 448.722Z" fill="#ff9900" p-id="5259"></path><path d="M314.932 220.87 326.914 220.87C382.142 220.87 426.914 265.642 426.914 320.87L426.914 429.316C426.914 484.544 382.142 529.316 326.914 529.316L314.932 529.316C259.702 529.316 214.932 484.544 214.932 429.316L214.932 320.87C214.932 265.642 259.702 220.87 314.932 220.87Z" fill="#ff9900" p-id="5260"></path><path d="M215.664 576.418C236.666 537.476 278.056 510.972 325.698 510.972 373.34 510.972 414.728 537.476 435.732 576.418L215.664 576.418Z" fill="#ff9900" p-id="5261"></path></svg>