<?xml version="1.0" standalone="no"?><!DOCTYPE svg PUBLIC "-//W3C//DTD SVG 1.1//EN" "http://www.w3.org/Graphics/SVG/1.1/DTD/svg11.dtd"><svg t="1579346026042" class="icon" viewBox="0 0 1024 1024" version="1.1" xmlns="http://www.w3.org/2000/svg" p-id="2239" xmlns:xlink="http://www.w3.org/1999/xlink" width="200" height="200"><defs><style type="text/css"></style></defs><path d="M223.906265 799.999212l511.593551 0 0-64.34816-511.593551 0L223.906265 799.999212zM735.499815 576.34816l-511.591975 0 0 63.316283 511.591975 0L735.499815 576.34816zM863.602215 959.993698l-735.468308 0 0-864.003938 515.716332 0 63.971643-63.988972-643.662769 0L64.159114 1024l863.381662 0 0-784.413932-63.941711 70.110917L863.599065 959.993698 863.602215 959.993698zM512.252062 448.026782l117.044775-0.094523 211.159828-210.504468-114.076751-118.416935L512.345009 332.387249 512.252062 448.026782zM959.840886 118.401182 845.857083 0l-67.157071 66.378831L893.244652 185.140775 959.840886 118.401182z" fill="#ff9900" p-id="2240"></path></svg>