<?xml version="1.0" standalone="no"?><!DOCTYPE svg PUBLIC "-//W3C//DTD SVG 1.1//EN" "http://www.w3.org/Graphics/SVG/1.1/DTD/svg11.dtd"><svg t="1577705606346" class="icon" viewBox="0 0 1221 1024" version="1.1" xmlns="http://www.w3.org/2000/svg" p-id="2574" xmlns:xlink="http://www.w3.org/1999/xlink" width="238.4765625" height="200"><defs><style type="text/css"></style></defs><path d="M387.289983 65.841411a48.186694 48.186694 0 0 1 14.794161-2.113452c23.247966 0 45.227862 15.850886 60.550385 30.645047C517.795612 147.209293 550.025747 243.054317 533.646498 303.287684a72.174368 72.174368 0 0 1-57.06319 54.738394C384.965187 380.428663 348.719494 322.83711 334.453697 271.057549c-22.930949-82.952971 4.755266-190.421978 52.836286-205.216138z m52.096579 360.026459a225.716618 225.716618 0 0 0 51.779562-6.340354 135.683585 135.683585 0 0 0 103.559122-99.543565c25.0444-92.463502-25.150073-210.60544-88.236599-271.36717-43.642773-42.26903-92.991865-57.591553-138.431072-43.325755-91.406776 28.531595-125.750363 172.774658-95.105317 282.674135C297.256951 376.20176 359.286751 425.86787 439.386562 425.86787zM757.989373 94.373006c18.4927-17.964338 46.707278-37.513764 75.238873-28.531595 48.081021 15.005505 75.872908 122.263168 52.836287 205.004793-14.265797 51.779561-50.194473 109.054096-142.129612 86.862856a71.751678 71.751678 0 0 1-57.06319-54.632721C670.492482 243.054317 703.039634 147.209293 757.989373 94.373006zM729.14076 419.527516a227.196034 227.196034 0 0 0 51.779561 6.340354c80.311156 0 142.129612-49.877455 166.434304-138.114054 30.433701-109.899477-3.909885-253.614177-95.105316-282.674135-45.96757-14.054452-94.788299 1.268071-138.642417 43.325755-63.403544 60.76173-113.386672 179.643376-88.236599 271.261497A136.634638 136.634638 0 0 0 729.14076 419.527516z" fill="#ff9900" p-id="2575"></path><path d="M1120.974664 490.116795c-25.678435 37.725109-70.060917 73.970802-137.374346 31.701772A58.753951 58.753951 0 0 1 954.223343 464.966722c3.170177-52.836287 57.380208-123.108549 116.239831-150.583417 15.850886-7.608425 45.756225-17.964338 66.045359-3.170178 30.645046 22.191241 29.059958 113.069654-15.533869 178.903668zM1006.002904 896.639187c-12.363691 33.075516-42.26903 52.836287-90.561396 60.550385-65.305651 10.567257-176.790216-7.714098-243.04692-18.809718a523.713276 523.713276 0 0 0-61.501438-8.453806 481.866937 481.866937 0 0 0-61.290093 8.242461c-66.573722 10.567257-178.375305 29.059958-244.103646 18.175682-48.609384-7.608425-78.197705-27.474869-90.667068-60.233367C190.210633 830.065465 237.551946 713.825634 295.883207 644.610098c31.701772-37.830781 147.941604-161.467693 314.375908-161.679038S893.250268 606.356626 924.95204 644.610098c58.331261 69.215536 105.883919 185.455367 81.050864 252.029089zM236.49522 521.818567c-66.890739 42.26903-111.484566 6.023337-136.845983-31.701772C55.266756 424.282781 53.36465 333.404368 84.538059 310.684764a42.26903 42.26903 0 0 1 25.361418-7.608425 99.966255 99.966255 0 0 1 40.683941 10.567258C209.020351 341.329811 263.124709 412.130435 266.294886 464.227014a59.070969 59.070969 0 0 1-29.799666 57.591553z m806.28174-265.555178C972.18768 289.867267 895.892082 375.462052 890.819798 460.739819a120.995097 120.995097 0 0 0 28.531595 87.179874c-63.403544-56.746172-169.076118-128.07516-307.718535-128.92054h-2.113452c-138.431072 0.528363-244.949026 72.385713-307.824207 129.237558a120.149717 120.149717 0 0 0 28.531595-87.496892c-4.966611-85.277767-81.367882-170.872552-151.851489-204.47643-49.454765-23.247966-95.105317-22.402586-130.822647 2.958832-68.687173 50.194473-57.274535 181.968172-0.211345 266.506231 34.871949 51.779561 81.579227 78.514722 131.7737 78.514723a170.238517 170.238517 0 0 0 91.406776-28.848613 136.528966 136.528966 0 0 0 11.941001-9.721877c-15.322523 15.005505-27.791887 28.531595-35.188967 37.513764-58.331261 69.743899-131.033992 211.345148-92.146484 314.90427 14.265797 38.042127 50.194473 86.651511 140.01616 100.917309 75.767236 12.680709 193.909173-6.657372 264.181435-18.281356 21.134515-3.381522 45.227862-7.39708 51.039853-7.39708s30.116684 4.015558 51.251198 7.714098c57.591553 9.510532 138.114054 22.930949 206.589883 22.930949a362.879619 362.879619 0 0 0 57.591552-3.909886c89.821688-14.265797 125.750363-63.403544 140.016161-101.234325 39.098852-104.615848-33.603879-246.217097-91.93514-315.643979-7.39708-8.770824-19.549426-22.191241-34.660604-36.985401 4.015558 2.853159 7.185735 6.5517 11.412638 9.193514a171.083897 171.083897 0 0 0 91.406777 28.848613c50.194473 0 96.90175-26.735161 131.773699-78.514723 57.06319-84.538059 69.004191-216.100414 0-266.506231-35.400312-25.150073-81.6849-26.206798-131.033991-2.958832z" fill="#ff9900" p-id="2576"></path></svg>